<svg xmlns="http://www.w3.org/2000/svg" width="815" height="1100" viewBox="0 0 815 1100" role="img" aria-label="Travel Korea auto-generated region hit areas">
  <title>Travel Korea Region Hit Areas - Auto Trace</title>
  <desc>Auto-generated SVG hit paths traced from map-gray.png. Replace data-region-name after manual name QA.</desc>
  <style>
    .region-hit {
      fill: #00a3ff;
      fill-opacity: 0.001;
      stroke: #00a3ff;
      stroke-width: 1;
      stroke-opacity: 0;
      vector-effect: non-scaling-stroke;
      cursor: pointer;
      pointer-events: all;
    }
    .region-hit:hover {
      fill-opacity: 0.18;
      stroke-opacity: 0.85;
      stroke-width: 2;
    }
  </style>
  <g id="region-hit-areas" data-generated="auto" data-region-count="150">
    <path id="region-001" class="region-hit" data-region-id="region-001" data-region-name="미지정" data-auto-name="Region 001" data-centroid-x="605.79" data-centroid-y="104.9" d="M 615 73 L 572 109 L 600 130 L 632 118 L 626 93 Z" />
    <path id="region-002" class="region-hit" data-region-id="region-002" data-region-name="미지정" data-auto-name="Region 002" data-centroid-x="352.34" data-centroid-y="126.07" d="M 377 96 L 373 94 L 337 106 L 319 148 L 322 150 L 365 152 L 379 122 Z" />
    <path id="region-003" class="region-hit" data-region-id="region-003" data-region-name="미지정" data-auto-name="Region 003" data-centroid-x="423.16" data-centroid-y="113.6" d="M 388 94 L 391 117 L 431 143 L 453 121 L 459 103 L 458 100 L 396 93 Z" />
    <path id="region-004" class="region-hit" data-region-id="region-004" data-region-name="미지정" data-auto-name="Region 004" data-centroid-x="476.86" data-centroid-y="138.5" d="M 503 104 L 472 102 L 465 124 L 440 150 L 459 178 L 470 164 L 508 161 L 498 140 L 504 109 Z" />
    <path id="region-005" class="region-hit" data-region-id="region-005" data-region-name="미지정" data-auto-name="Region 005" data-centroid-x="531.61" data-centroid-y="133.58" d="M 517 105 L 511 140 L 522 164 L 527 169 L 546 154 L 555 113 Z" />
    <path id="region-006" class="region-hit" data-region-id="region-006" data-region-name="미지정" data-auto-name="Region 006" data-centroid-x="392.7" data-centroid-y="162.86" d="M 391 130 L 388 131 L 377 155 L 379 183 L 371 202 L 385 204 L 390 182 L 423 151 Z" />
    <path id="region-007" class="region-hit" data-region-id="region-007" data-region-name="미지정" data-auto-name="Region 007" data-centroid-x="621.85" data-centroid-y="150.88" d="M 635 130 L 617 135 L 605 141 L 603 166 L 611 174 L 620 165 L 644 160 Z" />
    <path id="region-008" class="region-hit" data-region-id="region-008" data-region-name="미지정" data-auto-name="Region 008" data-centroid-x="233.25" data-centroid-y="203.32" d="M 223 187 L 224 217 L 237 219 L 247 205 L 246 197 L 240 192 Z" />
    <path id="region-009" class="region-hit" data-region-id="region-009" data-region-name="미지정" data-auto-name="Region 009" data-centroid-x="313.98" data-centroid-y="182.65" d="M 343 164 L 312 161 L 291 182 L 289 204 L 294 205 L 324 201 Z" />
    <path id="region-010" class="region-hit" data-region-id="region-010" data-region-name="미지정" data-auto-name="Region 010" data-centroid-x="352.97" data-centroid-y="188.93" d="M 364 164 L 355 165 L 337 203 L 337 206 L 348 215 L 352 211 L 367 180 Z" />
    <path id="region-011" class="region-hit" data-region-id="region-011" data-region-name="미지정" data-auto-name="Region 011" data-centroid-x="420.79" data-centroid-y="202.58" d="M 432 160 L 400 190 L 396 209 L 408 245 L 429 243 L 427 217 L 451 188 Z" />
    <path id="region-012" class="region-hit" data-region-id="region-012" data-region-name="미지정" data-auto-name="Region 012" data-centroid-x="483.44" data-centroid-y="199.55" d="M 519 178 L 515 173 L 476 175 L 441 218 L 462 228 L 493 220 L 518 196 Z" />
    <path id="region-013" class="region-hit" data-region-id="region-013" data-region-name="미지정" data-auto-name="Region 013" data-centroid-x="573.31" data-centroid-y="179.88" d="M 568 119 L 565 123 L 557 159 L 531 180 L 530 192 L 532 196 L 556 209 L 561 214 L 565 223 L 607 215 L 615 198 L 607 186 L 591 170 L 593 138 Z" />
    <path id="region-014" class="region-hit" data-region-id="region-014" data-region-name="미지정" data-auto-name="Region 014" data-centroid-x="641.63" data-centroid-y="198.44" d="M 619 184 L 627 193 L 622 216 L 637 221 L 668 217 L 647 172 L 625 175 Z" />
    <path id="region-015" class="region-hit" data-region-id="region-015" data-region-name="미지정" data-auto-name="Region 015" data-centroid-x="264.4" data-centroid-y="208.48" d="M 277 187 L 257 194 L 260 207 L 247 225 L 252 234 L 277 209 Z" />
    <path id="region-016" class="region-hit" data-region-id="region-016" data-region-name="미지정" data-auto-name="Region 016" data-centroid-x="314.27" data-centroid-y="221.63" d="M 337 222 L 326 213 L 293 217 L 305 233 Z" />
    <path id="region-017" class="region-hit" data-region-id="region-017" data-region-name="미지정" data-auto-name="Region 017" data-centroid-x="379.19" data-centroid-y="238.66" d="M 364 214 L 358 224 L 376 244 L 374 270 L 382 270 L 388 264 L 388 260 L 394 254 L 396 247 L 386 217 Z" />
    <path id="region-018" class="region-hit" data-region-id="region-018" data-region-name="미지정" data-auto-name="Region 018" data-centroid-x="281.61" data-centroid-y="255.14" d="M 281 221 L 258 246 L 278 276 L 284 295 L 301 273 L 296 265 L 296 241 Z" />
    <path id="region-019" class="region-hit" data-region-id="region-019" data-region-name="미지정" data-auto-name="Region 019" data-centroid-x="334.03" data-centroid-y="252.82" d="M 364 248 L 348 230 L 310 244 L 308 262 L 313 270 L 333 277 L 345 261 L 349 259 L 361 259 Z" />
    <path id="region-020" class="region-hit" data-region-id="region-020" data-region-name="미지정" data-auto-name="Region 020" data-centroid-x="531.18" data-centroid-y="240.55" d="M 439 230 L 443 248 L 477 266 L 487 264 L 514 253 L 563 265 L 585 247 L 615 250 L 629 230 L 611 225 L 560 236 L 556 233 L 548 217 L 527 205 L 496 232 L 463 240 Z" />
    <path id="region-021" class="region-hit" data-region-id="region-021" data-region-name="미지정" data-auto-name="Region 021" data-centroid-x="671.19" data-centroid-y="266.7" d="M 674 229 L 642 232 L 636 240 L 644 251 L 663 262 L 657 290 L 653 294 L 644 297 L 660 305 L 681 300 L 706 285 Z" />
    <path id="region-022" class="region-hit" data-region-id="region-022" data-region-name="미지정" data-auto-name="Region 022" data-centroid-x="312.56" data-centroid-y="297.54" d="M 311 281 L 293 304 L 321 313 L 328 287 Z" />
    <path id="region-023" class="region-hit" data-region-id="region-023" data-region-name="미지정" data-auto-name="Region 023" data-centroid-x="350.28" data-centroid-y="283.17" d="M 360 271 L 352 272 L 349 277 L 351 280 L 348 283 L 345 281 L 341 286 L 341 294 L 348 294 L 359 281 L 358 276 L 361 273 Z" />
    <path id="region-024" class="region-hit" data-region-id="region-024" data-region-name="미지정" data-auto-name="Region 024" data-centroid-x="378.87" data-centroid-y="294.68" d="M 370 284 L 361 298 L 386 310 L 394 297 L 389 286 L 385 281 Z" />
    <path id="region-025" class="region-hit" data-region-id="region-025" data-region-name="미지정" data-auto-name="Region 025" data-centroid-x="433.12" data-centroid-y="281.4" d="M 406 256 L 396 273 L 405 292 L 453 315 L 470 276 L 435 256 Z" />
    <path id="region-026" class="region-hit" data-region-id="region-026" data-region-name="미지정" data-auto-name="Region 026" data-centroid-x="530.57" data-centroid-y="290.52" d="M 488 275 L 523 316 L 553 318 L 564 298 L 559 275 L 519 265 L 514 265 Z" />
    <path id="region-027" class="region-hit" data-region-id="region-027" data-region-name="미지정" data-auto-name="Region 027" data-centroid-x="602.17" data-centroid-y="292.31" d="M 629 251 L 618 262 L 587 259 L 571 273 L 576 302 L 565 322 L 602 347 L 603 328 L 619 294 L 626 289 L 644 285 L 648 278 L 650 267 L 634 258 Z" />
    <path id="region-028" class="region-hit" data-region-id="region-028" data-region-name="미지정" data-auto-name="Region 028" data-centroid-x="283.69" data-centroid-y="329.58" d="M 246 312 L 249 317 L 274 338 L 281 359 L 303 347 L 317 325 L 280 312 L 249 308 Z" />
    <path id="region-029" class="region-hit" data-region-id="region-029" data-region-name="미지정" data-auto-name="Region 029" data-centroid-x="355.48" data-centroid-y="319.15" d="M 333 317 L 335 320 L 365 336 L 368 335 L 379 320 L 352 306 L 337 306 Z" />
    <path id="region-030" class="region-hit" data-region-id="region-030" data-region-name="미지정" data-auto-name="Region 030" data-centroid-x="426.38" data-centroid-y="328.51" d="M 404 304 L 396 317 L 442 357 L 449 348 L 450 327 Z" />
    <path id="region-031" class="region-hit" data-region-id="region-031" data-region-name="미지정" data-auto-name="Region 031" data-centroid-x="489.75" data-centroid-y="331.1" d="M 480 284 L 462 324 L 460 350 L 467 360 L 530 354 L 515 324 Z" />
    <path id="region-032" class="region-hit" data-region-id="region-032" data-region-name="미지정" data-auto-name="Region 032" data-centroid-x="696.32" data-centroid-y="329.41" d="M 709 297 L 688 309 L 686 332 L 675 353 L 673 361 L 690 358 L 714 330 L 715 322 Z" />
    <path id="region-033" class="region-hit" data-region-id="region-033" data-region-name="미지정" data-auto-name="Region 033" data-centroid-x="334.61" data-centroid-y="339.35" d="M 320 344 L 337 346 L 354 342 L 328 329 Z" />
    <path id="region-034" class="region-hit" data-region-id="region-034" data-region-name="미지정" data-auto-name="Region 034" data-centroid-x="404.88" data-centroid-y="351.24" d="M 377 343 L 390 351 L 406 357 L 408 359 L 408 370 L 411 372 L 424 372 L 433 367 L 423 355 L 391 327 L 387 329 Z" />
    <path id="region-035" class="region-hit" data-region-id="region-035" data-region-name="미지정" data-auto-name="Region 035" data-centroid-x="585.38" data-centroid-y="365.3" d="M 531 329 L 547 356 L 621 404 L 631 408 L 635 389 L 605 361 L 556 330 Z" />
    <path id="region-036" class="region-hit" data-region-id="region-036" data-region-name="미지정" data-auto-name="Region 036" data-centroid-x="642.15" data-centroid-y="339.04" d="M 628 304 L 615 328 L 614 354 L 642 380 L 657 365 L 674 331 L 676 314 L 660 317 Z" />
    <path id="region-037" class="region-hit" data-region-id="region-037" data-region-name="미지정" data-auto-name="Region 037" data-centroid-x="237.97" data-centroid-y="385.87" d="M 201 364 L 203 377 L 245 414 L 265 421 L 267 420 L 271 403 L 256 373 L 225 355 L 205 361 Z" />
    <path id="region-038" class="region-hit" data-region-id="region-038" data-region-name="미지정" data-auto-name="Region 038" data-centroid-x="310.24" data-centroid-y="371.09" d="M 330 358 L 310 355 L 288 367 L 285 371 L 298 387 L 326 382 L 330 380 Z" />
    <path id="region-039" class="region-hit" data-region-id="region-039" data-region-name="미지정" data-auto-name="Region 039" data-centroid-x="365.64" data-centroid-y="372.48" d="M 367 351 L 344 356 L 342 364 L 342 384 L 362 399 L 394 375 L 396 370 L 394 363 Z" />
    <path id="region-040" class="region-hit" data-region-id="region-040" data-region-name="미지정" data-auto-name="Region 040" data-centroid-x="476.75" data-centroid-y="396.74" d="M 453 361 L 438 379 L 456 396 L 468 417 L 497 438 L 506 403 L 505 398 L 485 370 L 463 372 Z" />
    <path id="region-041" class="region-hit" data-region-id="region-041" data-region-name="미지정" data-auto-name="Region 041" data-centroid-x="521.16" data-centroid-y="398.8" d="M 533 365 L 498 369 L 518 397 L 510 441 L 531 436 L 534 380 Z" />
    <path id="region-042" class="region-hit" data-region-id="region-042" data-region-name="미지정" data-auto-name="Region 042" data-centroid-x="667.67" data-centroid-y="395.46" d="M 686 372 L 674 372 L 661 377 L 647 391 L 642 412 L 693 412 L 684 398 Z" />
    <path id="region-043" class="region-hit" data-region-id="region-043" data-region-name="미지정" data-auto-name="Region 043" data-centroid-x="722.19" data-centroid-y="382.47" d="M 721 339 L 698 366 L 696 395 L 709 412 L 724 420 L 746 405 L 749 376 Z" />
    <path id="region-044" class="region-hit" data-region-id="region-044" data-region-name="미지정" data-auto-name="Region 044" data-centroid-x="163.69" data-centroid-y="401.75" d="M 167 377 L 144 405 L 168 430 L 178 380 Z" />
    <path id="region-045" class="region-hit" data-region-id="region-045" data-region-name="미지정" data-auto-name="Region 045" data-centroid-x="202.49" data-centroid-y="413.59" d="M 189 391 L 180 429 L 181 434 L 199 430 L 219 430 L 232 418 L 200 389 L 195 388 Z" />
    <path id="region-046" class="region-hit" data-region-id="region-046" data-region-name="미지정" data-auto-name="Region 046" data-centroid-x="297.93" data-centroid-y="418.58" d="M 322 394 L 297 399 L 282 408 L 277 428 L 289 445 L 307 435 L 312 430 L 314 409 L 323 396 Z" />
    <path id="region-047" class="region-hit" data-region-id="region-047" data-region-name="미지정" data-auto-name="Region 047" data-centroid-x="337.28" data-centroid-y="427.64" d="M 357 410 L 337 394 L 325 413 L 324 434 L 302 451 L 318 454 L 347 446 L 363 428 Z" />
    <path id="region-048" class="region-hit" data-region-id="region-048" data-region-name="미지정" data-auto-name="Region 048" data-centroid-x="393.72" data-centroid-y="416.99" d="M 368 408 L 374 423 L 413 437 L 422 426 L 388 395 L 385 395 Z" />
    <path id="region-049" class="region-hit" data-region-id="region-049" data-region-name="미지정" data-auto-name="Region 049" data-centroid-x="426.28" data-centroid-y="400.02" d="M 396 387 L 430 419 L 435 420 L 454 417 L 446 401 L 427 383 L 409 383 L 403 381 Z" />
    <path id="region-050" class="region-hit" data-region-id="region-050" data-region-name="미지정" data-auto-name="Region 050" data-centroid-x="569.08" data-centroid-y="413.88" d="M 546 370 L 542 439 L 553 454 L 566 454 L 590 426 L 621 417 L 548 369 Z" />
    <path id="region-051" class="region-hit" data-region-id="region-051" data-region-name="미지정" data-auto-name="Region 051" data-centroid-x="224.2" data-centroid-y="459.01" d="M 204 442 L 202 461 L 204 466 L 230 478 L 238 479 L 243 476 L 242 473 L 246 470 L 245 453 L 242 450 L 223 441 Z" />
    <path id="region-052" class="region-hit" data-region-id="region-052" data-region-name="미지정" data-auto-name="Region 052" data-centroid-x="258.93" data-centroid-y="444.99" d="M 241 424 L 231 433 L 251 444 L 250 448 L 253 449 L 257 455 L 258 468 L 268 469 L 280 454 L 279 450 L 265 432 Z" />
    <path id="region-053" class="region-hit" data-region-id="region-053" data-region-name="미지정" data-auto-name="Region 053" data-centroid-x="458.64" data-centroid-y="447.64" d="M 423 443 L 443 461 L 449 475 L 457 465 L 464 460 L 489 465 L 495 450 L 465 428 L 433 430 Z" />
    <path id="region-054" class="region-hit" data-region-id="region-054" data-region-name="미지정" data-auto-name="Region 054" data-centroid-x="608.26" data-centroid-y="457.2" d="M 628 427 L 596 436 L 578 458 L 598 477 L 602 489 L 615 488 L 629 467 Z" />
    <path id="region-055" class="region-hit" data-region-id="region-055" data-region-name="미지정" data-auto-name="Region 055" data-centroid-x="670.73" data-centroid-y="446.38" d="M 641 425 L 641 463 L 672 475 L 677 475 L 698 463 L 696 438 L 712 427 L 707 424 Z" />
    <path id="region-056" class="region-hit" data-region-id="region-056" data-region-name="미지정" data-auto-name="Region 056" data-centroid-x="305.04" data-centroid-y="494.67" d="M 290 459 L 278 475 L 279 491 L 294 510 L 293 515 L 287 523 L 301 525 L 323 533 L 326 523 L 329 483 L 312 465 Z" />
    <path id="region-057" class="region-hit" data-region-id="region-057" data-region-name="미지정" data-auto-name="Region 057" data-centroid-x="341.05" data-centroid-y="476.76" d="M 345 458 L 326 463 L 341 480 L 340 503 L 350 497 Z" />
    <path id="region-058" class="region-hit" data-region-id="region-058" data-region-name="미지정" data-auto-name="Region 058" data-centroid-x="382.42" data-centroid-y="471.72" d="M 372 434 L 357 451 L 361 497 L 385 516 L 408 478 L 410 448 Z" />
    <path id="region-059" class="region-hit" data-region-id="region-059" data-region-name="미지정" data-auto-name="Region 059" data-centroid-x="425.27" data-centroid-y="491.78" d="M 422 456 L 419 483 L 400 513 L 400 516 L 447 504 L 433 466 Z" />
    <path id="region-060" class="region-hit" data-region-id="region-060" data-region-name="미지정" data-auto-name="Region 060" data-centroid-x="504.86" data-centroid-y="478.54" d="M 543 460 L 533 447 L 507 453 L 500 474 L 496 477 L 467 472 L 454 488 L 458 500 L 487 501 L 500 489 L 522 500 L 540 489 Z" />
    <path id="region-061" class="region-hit" data-region-id="region-061" data-region-name="미지정" data-auto-name="Region 061" data-centroid-x="736.42" data-centroid-y="468.02" d="M 746 419 L 708 444 L 710 462 L 729 475 L 732 513 L 743 524 L 757 503 Z" />
    <path id="region-062" class="region-hit" data-region-id="region-062" data-region-name="미지정" data-auto-name="Region 062" data-centroid-x="212.29" data-centroid-y="507.78" d="M 201 476 L 198 493 L 201 531 L 203 535 L 220 536 L 228 515 L 228 503 L 225 490 L 222 486 Z" />
    <path id="region-063" class="region-hit" data-region-id="region-063" data-region-name="미지정" data-auto-name="Region 063" data-centroid-x="257.26" data-centroid-y="499.22" d="M 236 487 L 241 509 L 271 521 L 274 521 L 281 511 L 270 498 L 265 479 L 252 478 Z" />
    <path id="region-064" class="region-hit" data-region-id="region-064" data-region-name="미지정" data-auto-name="Region 064" data-centroid-x="560.65" data-centroid-y="499.22" d="M 567 465 L 555 466 L 552 494 L 543 502 L 528 510 L 530 530 L 533 534 L 546 519 L 568 525 L 590 495 L 587 483 Z" />
    <path id="region-065" class="region-hit" data-region-id="region-065" data-region-name="미지정" data-auto-name="Region 065" data-centroid-x="629.85" data-centroid-y="518.25" d="M 638 475 L 623 498 L 601 500 L 579 532 L 589 545 L 598 544 L 606 535 L 632 542 L 635 545 L 641 568 L 644 569 L 650 565 L 654 534 L 667 528 L 660 512 L 660 505 L 667 486 Z" />
    <path id="region-066" class="region-hit" data-region-id="region-066" data-region-name="미지정" data-auto-name="Region 066" data-centroid-x="695.32" data-centroid-y="503.48" d="M 704 472 L 680 486 L 672 508 L 680 530 L 692 543 L 696 539 L 701 514 L 707 510 L 719 509 L 717 481 Z" />
    <path id="region-067" class="region-hit" data-region-id="region-067" data-region-name="미지정" data-auto-name="Region 067" data-centroid-x="259.44" data-centroid-y="540.28" d="M 239 519 L 232 540 L 260 558 L 278 559 L 290 536 L 270 532 Z" />
    <path id="region-068" class="region-hit" data-region-id="region-068" data-region-name="미지정" data-auto-name="Region 068" data-centroid-x="355.07" data-centroid-y="534.72" d="M 355 507 L 341 514 L 337 521 L 335 541 L 345 561 L 368 556 L 379 527 Z" />
    <path id="region-069" class="region-hit" data-region-id="region-069" data-region-name="미지정" data-auto-name="Region 069" data-centroid-x="411.9" data-centroid-y="543.19" d="M 446 517 L 438 517 L 392 529 L 388 535 L 380 558 L 389 572 L 434 554 Z" />
    <path id="region-070" class="region-hit" data-region-id="region-070" data-region-name="미지정" data-auto-name="Region 070" data-centroid-x="486.67" data-centroid-y="542.65" d="M 502 502 L 490 513 L 460 513 L 447 554 L 480 580 L 504 583 L 506 564 L 527 544 L 519 536 L 515 510 Z" />
    <path id="region-071" class="region-hit" data-region-id="region-071" data-region-name="미지정" data-auto-name="Region 071" data-centroid-x="720.08" data-centroid-y="555.01" d="M 724 522 L 712 523 L 708 543 L 698 553 L 702 583 L 724 583 L 731 578 L 743 561 L 740 539 Z" />
    <path id="region-072" class="region-hit" data-region-id="region-072" data-region-name="미지정" data-auto-name="Region 072" data-centroid-x="223.24" data-centroid-y="563.08" d="M 200 547 L 197 555 L 225 584 L 234 581 L 238 582 L 249 564 L 224 547 Z" />
    <path id="region-073" class="region-hit" data-region-id="region-073" data-region-name="미지정" data-auto-name="Region 073" data-centroid-x="266.57" data-centroid-y="587.27" d="M 260 569 L 250 584 L 250 588 L 257 603 L 273 608 L 280 594 L 282 583 L 276 570 Z" />
    <path id="region-074" class="region-hit" data-region-id="region-074" data-region-name="미지정" data-auto-name="Region 074" data-centroid-x="310.39" data-centroid-y="561.36" d="M 303 537 L 288 564 L 292 578 L 294 580 L 326 578 L 334 567 L 325 547 L 322 544 Z" />
    <path id="region-075" class="region-hit" data-region-id="region-075" data-region-name="미지정" data-auto-name="Region 075" data-centroid-x="361.73" data-centroid-y="587.07" d="M 371 567 L 346 572 L 337 583 L 353 606 L 358 609 L 382 600 L 382 582 Z" />
    <path id="region-076" class="region-hit" data-region-id="region-076" data-region-name="미지정" data-auto-name="Region 076" data-centroid-x="428.29" data-centroid-y="589.05" d="M 468 585 L 442 564 L 438 563 L 394 581 L 394 601 L 435 615 Z" />
    <path id="region-077" class="region-hit" data-region-id="region-077" data-region-name="미지정" data-auto-name="Region 077" data-centroid-x="533.12" data-centroid-y="589.3" d="M 535 553 L 518 568 L 516 589 L 520 620 L 547 610 L 560 611 L 545 587 L 547 572 Z" />
    <path id="region-078" class="region-hit" data-region-id="region-078" data-region-name="미지정" data-auto-name="Region 078" data-centroid-x="591.05" data-centroid-y="564.73" d="M 548 534 L 543 543 L 558 567 L 578 574 L 601 594 L 624 592 L 631 580 L 631 574 L 623 551 L 610 548 L 603 555 L 586 558 L 567 536 L 551 532 Z" />
    <path id="region-079" class="region-hit" data-region-id="region-079" data-region-name="미지정" data-auto-name="Region 079" data-centroid-x="667.1" data-centroid-y="575.8" d="M 673 540 L 665 542 L 661 571 L 642 583 L 637 594 L 638 596 L 657 604 L 689 586 L 685 553 Z" />
    <path id="region-080" class="region-hit" data-region-id="region-080" data-region-name="미지정" data-auto-name="Region 080" data-centroid-x="225.56" data-centroid-y="606.46" d="M 245 606 L 240 593 L 235 592 L 207 602 L 205 609 L 214 619 L 236 617 Z" />
    <path id="region-081" class="region-hit" data-region-id="region-081" data-region-name="미지정" data-auto-name="Region 081" data-centroid-x="314.14" data-centroid-y="608.75" d="M 285 611 L 287 615 L 314 630 L 330 626 L 345 614 L 327 590 L 294 591 Z" />
    <path id="region-082" class="region-hit" data-region-id="region-082" data-region-name="미지정" data-auto-name="Region 082" data-centroid-x="471.78" data-centroid-y="621.03" d="M 504 594 L 478 591 L 440 625 L 436 644 L 453 659 L 474 633 L 506 624 L 507 617 Z" />
    <path id="region-083" class="region-hit" data-region-id="region-083" data-region-name="미지정" data-auto-name="Region 083" data-centroid-x="589.93" data-centroid-y="605.44" d="M 557 581 L 569 605 L 575 612 L 576 617 L 588 630 L 596 619 L 638 608 L 630 604 L 598 605 L 569 582 L 560 579 Z" />
    <path id="region-084" class="region-hit" data-region-id="region-084" data-region-name="미지정" data-auto-name="Region 084" data-centroid-x="246.25" data-centroid-y="636.81" d="M 269 619 L 254 614 L 243 626 L 223 631 L 222 634 L 229 654 L 231 656 L 256 654 L 259 651 Z" />
    <path id="region-085" class="region-hit" data-region-id="region-085" data-region-name="미지정" data-auto-name="Region 085" data-centroid-x="288.52" data-centroid-y="650.92" d="M 282 624 L 279 627 L 269 657 L 280 676 L 307 663 L 307 639 Z" />
    <path id="region-086" class="region-hit" data-region-id="region-086" data-region-name="미지정" data-auto-name="Region 086" data-centroid-x="340.92" data-centroid-y="649.89" d="M 354 623 L 336 636 L 319 641 L 319 664 L 334 679 L 363 649 L 366 635 Z" />
    <path id="region-087" class="region-hit" data-region-id="region-087" data-region-name="미지정" data-auto-name="Region 087" data-centroid-x="397.34" data-centroid-y="631.62" d="M 367 618 L 379 632 L 376 649 L 397 652 L 422 643 L 425 639 L 427 625 L 390 611 Z" />
    <path id="region-088" class="region-hit" data-region-id="region-088" data-region-name="미지정" data-auto-name="Region 088" data-centroid-x="491.29" data-centroid-y="655.28" d="M 510 638 L 507 636 L 480 643 L 463 666 L 481 676 L 493 664 L 516 663 L 517 659 Z" />
    <path id="region-089" class="region-hit" data-region-id="region-089" data-region-name="미지정" data-auto-name="Region 089" data-centroid-x="545.54" data-centroid-y="638.82" d="M 579 637 L 567 624 L 546 622 L 521 632 L 531 662 L 541 661 L 556 643 Z" />
    <path id="region-090" class="region-hit" data-region-id="region-090" data-region-name="미지정" data-auto-name="Region 090" data-centroid-x="634.36" data-centroid-y="641.54" d="M 665 656 L 654 637 L 651 618 L 604 629 L 598 638 L 598 642 L 601 646 L 619 646 L 641 669 Z" />
    <path id="region-091" class="region-hit" data-region-id="region-091" data-region-name="미지정" data-auto-name="Region 091" data-centroid-x="695.43" data-centroid-y="625.78" d="M 664 613 L 666 634 L 678 653 L 716 656 L 723 648 L 717 628 L 722 600 L 721 595 L 695 595 Z" />
    <path id="region-092" class="region-hit" data-region-id="region-092" data-region-name="미지정" data-auto-name="Region 092" data-centroid-x="196.93" data-centroid-y="662.62" d="M 214 647 L 199 642 L 181 662 L 167 666 L 167 672 L 185 674 L 207 680 L 219 662 Z" />
    <path id="region-093" class="region-hit" data-region-id="region-093" data-region-name="미지정" data-auto-name="Region 093" data-centroid-x="358.63" data-centroid-y="684.76" d="M 369 660 L 340 689 L 340 703 L 342 705 L 360 707 L 371 677 L 384 663 Z" />
    <path id="region-094" class="region-hit" data-region-id="region-094" data-region-name="미지정" data-auto-name="Region 094" data-centroid-x="427.02" data-centroid-y="679.04" d="M 401 662 L 391 672 L 402 674 L 437 713 L 450 696 L 448 671 L 429 653 Z" />
    <path id="region-095" class="region-hit" data-region-id="region-095" data-region-name="미지정" data-auto-name="Region 095" data-centroid-x="556.63" data-centroid-y="682.41" d="M 588 648 L 564 652 L 549 670 L 530 676 L 519 703 L 522 719 L 538 715 L 554 697 L 568 703 L 572 702 L 590 676 L 592 653 Z" />
    <path id="region-096" class="region-hit" data-region-id="region-096" data-region-name="미지정" data-auto-name="Region 096" data-centroid-x="610.87" data-centroid-y="682.88" d="M 614 658 L 603 659 L 601 681 L 587 704 L 615 702 L 622 696 L 632 676 Z" />
    <path id="region-097" class="region-hit" data-region-id="region-097" data-region-name="미지정" data-auto-name="Region 097" data-centroid-x="179.3" data-centroid-y="708.22" d="M 205 691 L 188 687 L 180 696 L 161 697 L 151 711 L 175 734 L 179 733 L 184 728 L 191 710 L 210 702 Z" />
    <path id="region-098" class="region-hit" data-region-id="region-098" data-region-name="미지정" data-auto-name="Region 098" data-centroid-x="241.63" data-centroid-y="689.38" d="M 259 665 L 229 668 L 217 686 L 226 707 L 238 723 L 251 713 L 253 697 L 269 683 Z" />
    <path id="region-099" class="region-hit" data-region-id="region-099" data-region-name="미지정" data-auto-name="Region 099" data-centroid-x="308.75" data-centroid-y="693.43" d="M 311 674 L 285 687 L 296 706 L 313 711 L 328 706 L 329 703 L 328 689 Z" />
    <path id="region-100" class="region-hit" data-region-id="region-100" data-region-name="미지정" data-auto-name="Region 100" data-centroid-x="389.14" data-centroid-y="715.3" d="M 396 685 L 380 686 L 371 712 L 376 748 L 384 759 L 387 744 L 407 722 L 413 703 Z" />
    <path id="region-101" class="region-hit" data-region-id="region-101" data-region-name="미지정" data-auto-name="Region 101" data-centroid-x="500.72" data-centroid-y="693.3" d="M 516 675 L 497 676 L 489 685 L 491 711 L 505 717 L 508 716 L 507 709 L 502 706 L 507 701 Z" />
    <path id="region-102" class="region-hit" data-region-id="region-102" data-region-name="미지정" data-auto-name="Region 102" data-centroid-x="690.37" data-centroid-y="698.37" d="M 643 682 L 632 704 L 660 713 L 717 742 L 737 709 L 727 678 L 716 668 L 675 664 L 649 677 Z" />
    <path id="region-103" class="region-hit" data-region-id="region-103" data-region-name="미지정" data-auto-name="Region 103" data-centroid-x="145.15" data-centroid-y="742.13" d="M 169 751 L 167 743 L 144 720 L 120 752 L 120 756 L 123 758 L 137 751 L 168 755 Z" />
    <path id="region-104" class="region-hit" data-region-id="region-104" data-region-name="미지정" data-auto-name="Region 104" data-centroid-x="204.2" data-centroid-y="736.22" d="M 216 713 L 202 717 L 192 739 L 179 745 L 182 756 L 214 751 L 213 741 L 228 730 Z" />
    <path id="region-105" class="region-hit" data-region-id="region-105" data-region-name="미지정" data-auto-name="Region 105" data-centroid-x="243.37" data-centroid-y="747.57" d="M 251 728 L 226 746 L 227 753 L 244 759 L 250 767 L 255 756 L 255 746 Z" />
    <path id="region-106" class="region-hit" data-region-id="region-106" data-region-name="미지정" data-auto-name="Region 106" data-centroid-x="278.04" data-centroid-y="725.25" d="M 274 694 L 264 703 L 262 720 L 267 750 L 280 753 L 303 720 L 287 714 Z" />
    <path id="region-107" class="region-hit" data-region-id="region-107" data-region-name="미지정" data-auto-name="Region 107" data-centroid-x="333.13" data-centroid-y="737.91" d="M 359 720 L 335 715 L 317 721 L 293 755 L 303 758 L 323 750 L 328 750 L 349 760 L 363 748 Z" />
    <path id="region-108" class="region-hit" data-region-id="region-108" data-region-name="미지정" data-auto-name="Region 108" data-centroid-x="468.03" data-centroid-y="729.5" d="M 462 678 L 462 700 L 442 728 L 440 747 L 455 759 L 455 772 L 464 775 L 473 746 L 476 743 L 503 743 L 509 731 L 477 715 L 476 687 Z" />
    <path id="region-109" class="region-hit" data-region-id="region-109" data-region-name="미지정" data-auto-name="Region 109" data-centroid-x="597.62" data-centroid-y="726.12" d="M 549 720 L 559 735 L 590 741 L 636 736 L 648 722 L 623 713 L 569 716 L 560 711 L 555 713 Z" />
    <path id="region-110" class="region-hit" data-region-id="region-110" data-region-name="미지정" data-auto-name="Region 110" data-centroid-x="149.55" data-centroid-y="781.95" d="M 139 762 L 127 769 L 142 783 L 142 787 L 137 796 L 146 806 L 153 805 L 169 789 L 161 779 L 166 768 Z" />
    <path id="region-111" class="region-hit" data-region-id="region-111" data-region-name="미지정" data-auto-name="Region 111" data-centroid-x="212.5" data-centroid-y="780.96" d="M 175 777 L 180 785 L 192 787 L 206 799 L 232 802 L 244 784 L 236 768 L 222 763 L 181 768 Z" />
    <path id="region-112" class="region-hit" data-region-id="region-112" data-region-name="미지정" data-auto-name="Region 112" data-centroid-x="286.35" data-centroid-y="783.98" d="M 265 763 L 259 779 L 260 783 L 279 793 L 292 809 L 310 802 L 309 788 L 298 769 L 268 762 Z" />
    <path id="region-113" class="region-hit" data-region-id="region-113" data-region-name="미지정" data-auto-name="Region 113" data-centroid-x="416.1" data-centroid-y="761.7" d="M 426 719 L 420 721 L 413 736 L 410 739 L 408 738 L 399 748 L 396 764 L 389 770 L 392 774 L 388 778 L 388 781 L 401 789 L 435 783 L 443 775 L 443 764 L 427 751 L 430 724 Z" />
    <path id="region-114" class="region-hit" data-region-id="region-114" data-region-name="미지정" data-auto-name="Region 114" data-centroid-x="490.02" data-centroid-y="772.83" d="M 503 755 L 485 754 L 483 756 L 476 781 L 471 791 L 472 793 L 482 796 L 495 779 L 509 777 L 510 773 Z" />
    <path id="region-115" class="region-hit" data-region-id="region-115" data-region-name="미지정" data-auto-name="Region 115" data-centroid-x="532.73" data-centroid-y="752.45" d="M 524 731 L 515 748 L 520 767 L 523 771 L 539 777 L 550 777 L 551 773 L 542 759 L 547 744 L 546 737 L 538 726 Z" />
    <path id="region-116" class="region-hit" data-region-id="region-116" data-region-name="미지정" data-auto-name="Region 116" data-centroid-x="586.79" data-centroid-y="765.2" d="M 555 757 L 564 770 L 564 781 L 581 791 L 593 786 L 606 769 L 624 759 L 629 749 L 592 753 L 559 746 Z" />
    <path id="region-117" class="region-hit" data-region-id="region-117" data-region-name="미지정" data-auto-name="Region 117" data-centroid-x="678.46" data-centroid-y="766.14" d="M 661 727 L 644 744 L 639 758 L 659 769 L 667 802 L 681 812 L 705 790 L 713 752 Z" />
    <path id="region-118" class="region-hit" data-region-id="region-118" data-region-name="미지정" data-auto-name="Region 118" data-centroid-x="121.67" data-centroid-y="814.94" d="M 115 800 L 109 817 L 119 831 L 133 823 L 136 813 L 125 801 Z" />
    <path id="region-119" class="region-hit" data-region-id="region-119" data-region-name="미지정" data-auto-name="Region 119" data-centroid-x="332.82" data-centroid-y="785.05" d="M 313 766 L 312 769 L 321 785 L 323 803 L 337 809 L 352 800 L 345 773 L 342 769 L 327 762 Z" />
    <path id="region-120" class="region-hit" data-region-id="region-120" data-region-name="미지정" data-auto-name="Region 120" data-centroid-x="381.56" data-centroid-y="805.13" d="M 368 759 L 356 768 L 366 803 L 380 829 L 396 852 L 405 815 L 397 800 L 375 787 L 376 769 Z" />
    <path id="region-121" class="region-hit" data-region-id="region-121" data-region-name="미지정" data-auto-name="Region 121" data-centroid-x="452.63" data-centroid-y="808.73" d="M 411 800 L 416 809 L 429 810 L 453 822 L 460 834 L 469 825 L 487 827 L 489 823 L 487 817 L 478 807 L 464 802 L 457 797 L 457 792 L 460 787 L 455 784 L 451 784 L 440 794 Z" />
    <path id="region-122" class="region-hit" data-region-id="region-122" data-region-name="미지정" data-auto-name="Region 122" data-centroid-x="514.55" data-centroid-y="797.69" d="M 544 790 L 520 782 L 515 788 L 503 789 L 491 803 L 500 815 L 508 816 L 522 799 L 539 797 Z" />
    <path id="region-123" class="region-hit" data-region-id="region-123" data-region-name="미지정" data-auto-name="Region 123" data-centroid-x="595.52" data-centroid-y="802.9" d="M 598 796 L 584 802 L 589 806 L 592 805 L 595 811 L 605 805 Z" />
    <path id="region-124" class="region-hit" data-region-id="region-124" data-region-name="미지정" data-auto-name="Region 124" data-centroid-x="631.7" data-centroid-y="785.07" d="M 607 787 L 620 797 L 653 798 L 648 776 L 633 768 L 616 776 Z" />
    <path id="region-125" class="region-hit" data-region-id="region-125" data-region-name="미지정" data-auto-name="Region 125" data-centroid-x="79.09" data-centroid-y="830.9" d="M 88 813 L 74 817 L 68 821 L 62 838 L 69 845 L 76 846 L 93 842 L 93 824 Z" />
    <path id="region-126" class="region-hit" data-region-id="region-126" data-region-name="미지정" data-auto-name="Region 126" data-centroid-x="176.25" data-centroid-y="818.77" d="M 198 807 L 190 799 L 178 796 L 159 816 L 149 817 L 146 820 L 145 829 L 150 837 L 165 829 L 194 836 L 201 826 Z" />
    <path id="region-127" class="region-hit" data-region-id="region-127" data-region-name="미지정" data-auto-name="Region 127" data-centroid-x="236.39" data-centroid-y="824.78" d="M 268 800 L 254 792 L 244 809 L 238 814 L 213 812 L 214 828 L 204 843 L 214 852 L 228 854 L 239 838 L 259 830 L 262 827 Z" />
    <path id="region-128" class="region-hit" data-region-id="region-128" data-region-name="미지정" data-auto-name="Region 128" data-centroid-x="304.83" data-centroid-y="839.47" d="M 279 812 L 273 831 L 279 850 L 301 858 L 312 871 L 323 871 L 331 859 L 327 842 L 329 819 L 319 813 L 315 813 L 289 822 Z" />
    <path id="region-129" class="region-hit" data-region-id="region-129" data-region-name="미지정" data-auto-name="Region 129" data-centroid-x="353.84" data-centroid-y="834.39" d="M 357 811 L 342 819 L 339 840 L 343 853 L 360 852 L 372 840 Z" />
    <path id="region-130" class="region-hit" data-region-id="region-130" data-region-name="미지정" data-auto-name="Region 130" data-centroid-x="430.82" data-centroid-y="846.91" d="M 417 821 L 408 861 L 429 867 L 452 869 L 453 847 L 445 831 L 428 822 Z" />
    <path id="region-131" class="region-hit" data-region-id="region-131" data-region-name="미지정" data-auto-name="Region 131" data-centroid-x="540.95" data-centroid-y="826.07" d="M 569 798 L 562 797 L 558 792 L 547 808 L 528 810 L 514 828 L 502 827 L 500 830 L 519 843 L 539 848 L 552 839 L 566 849 L 569 832 L 560 824 L 559 813 L 560 807 Z" />
    <path id="region-132" class="region-hit" data-region-id="region-132" data-region-name="미지정" data-auto-name="Region 132" data-centroid-x="578.63" data-centroid-y="816.02" d="M 578 807 L 572 812 L 572 819 L 577 824 L 589 816 L 586 813 L 580 815 L 577 812 L 580 809 Z" />
    <path id="region-133" class="region-hit" data-region-id="region-133" data-region-name="미지정" data-auto-name="Region 133" data-centroid-x="628.29" data-centroid-y="839.24" d="M 578 853 L 580 858 L 624 870 L 630 870 L 667 857 L 674 821 L 658 811 L 620 808 L 582 835 Z" />
    <path id="region-134" class="region-hit" data-region-id="region-134" data-region-name="미지정" data-auto-name="Region 134" data-centroid-x="129.2" data-centroid-y="857.53" d="M 135 836 L 110 848 L 110 859 L 128 877 L 145 875 L 147 873 L 142 847 Z" />
    <path id="region-135" class="region-hit" data-region-id="region-135" data-region-name="미지정" data-auto-name="Region 135" data-centroid-x="169.27" data-centroid-y="854.64" d="M 187 848 L 170 841 L 156 847 L 155 853 L 158 869 L 162 870 L 178 864 Z" />
    <path id="region-136" class="region-hit" data-region-id="region-136" data-region-name="미지정" data-auto-name="Region 136" data-centroid-x="261.98" data-centroid-y="872.81" d="M 301 876 L 295 868 L 271 860 L 268 857 L 264 843 L 260 841 L 246 848 L 229 880 L 228 888 L 231 895 L 235 896 L 264 883 L 283 898 L 295 888 Z" />
    <path id="region-137" class="region-hit" data-region-id="region-137" data-region-name="미지정" data-auto-name="Region 137" data-centroid-x="485.02" data-centroid-y="854.77" d="M 465 847 L 465 865 L 467 870 L 487 871 L 500 867 L 506 863 L 510 852 L 490 838 L 475 837 Z" />
    <path id="region-138" class="region-hit" data-region-id="region-138" data-region-name="미지정" data-auto-name="Region 138" data-centroid-x="174.01" data-centroid-y="901.89" d="M 180 875 L 162 882 L 160 887 L 160 911 L 167 925 L 176 931 L 186 919 L 188 889 Z" />
    <path id="region-139" class="region-hit" data-region-id="region-139" data-region-name="미지정" data-auto-name="Region 139" data-centroid-x="205.61" data-centroid-y="894.26" d="M 199 854 L 191 867 L 200 887 L 197 925 L 188 936 L 190 940 L 202 936 L 221 905 L 215 888 L 215 882 L 223 866 L 210 863 Z" />
    <path id="region-140" class="region-hit" data-region-id="region-140" data-region-name="미지정" data-auto-name="Region 140" data-centroid-x="349.05" data-centroid-y="893.31" d="M 357 864 L 341 865 L 333 879 L 338 903 L 332 919 L 341 924 L 363 913 L 365 881 Z" />
    <path id="region-141" class="region-hit" data-region-id="region-141" data-region-name="미지정" data-auto-name="Region 141" data-centroid-x="399.08" data-centroid-y="884.65" d="M 379 851 L 370 862 L 375 874 L 384 876 L 387 879 L 390 904 L 413 914 L 423 893 L 423 878 L 396 871 Z" />
    <path id="region-142" class="region-hit" data-region-id="region-142" data-region-name="미지정" data-auto-name="Region 142" data-centroid-x="490.26" data-centroid-y="897.02" d="M 503 878 L 488 883 L 474 883 L 480 891 L 477 909 L 479 913 L 490 918 L 503 904 Z" />
    <path id="region-143" class="region-hit" data-region-id="region-143" data-region-name="미지정" data-auto-name="Region 143" data-centroid-x="535.82" data-centroid-y="900.6" d="M 538 882 L 516 893 L 517 902 L 528 905 L 533 909 L 530 923 L 531 928 L 535 926 L 541 914 L 557 898 Z" />
    <path id="region-144" class="region-hit" data-region-id="region-144" data-region-name="미지정" data-auto-name="Region 144" data-centroid-x="81.76" data-centroid-y="917.16" d="M 97 899 L 94 898 L 84 901 L 72 917 L 61 922 L 61 930 L 66 932 L 82 932 L 96 917 L 99 909 Z" />
    <path id="region-145" class="region-hit" data-region-id="region-145" data-region-name="미지정" data-auto-name="Region 145" data-centroid-x="130.17" data-centroid-y="917.04" d="M 116 882 L 108 891 L 118 922 L 112 947 L 117 957 L 125 958 L 131 944 L 135 940 L 157 930 L 148 914 L 148 887 L 144 886 L 127 890 Z" />
    <path id="region-146" class="region-hit" data-region-id="region-146" data-region-name="미지정" data-auto-name="Region 146" data-centroid-x="276.58" data-centroid-y="930.39" d="M 307 924 L 295 903 L 282 915 L 279 915 L 266 925 L 259 926 L 247 923 L 243 931 L 274 955 L 289 948 L 287 931 L 291 927 L 295 926 L 306 929 Z" />
    <path id="region-147" class="region-hit" data-region-id="region-147" data-region-name="미지정" data-auto-name="Region 147" data-centroid-x="161.97" data-centroid-y="956.26" d="M 185 961 L 181 948 L 170 940 L 164 940 L 144 948 L 138 959 L 139 963 L 159 973 L 163 973 Z" />
    <path id="region-148" class="region-hit" data-region-id="region-148" data-region-name="미지정" data-auto-name="Region 148" data-centroid-x="130.97" data-centroid-y="1027.2" d="M 186 1034 L 183 1012 L 159 999 L 141 1008 L 84 1009 L 69 1029 L 76 1042 L 87 1041 L 122 1053 L 175 1045 Z" />
    <path id="region-149" class="region-hit" data-region-id="region-149" data-region-name="울릉도" data-auto-name="Ulleungdo" data-centroid-x="713.0" data-centroid-y="158.5" d="M 680 151 L 689 143 L 703 139 L 720 144 L 733 151 L 747 160 L 748 168 L 735 174 L 715 174 L 695 172 L 678 165 Z" />
    <path id="region-150" class="region-hit" data-region-id="region-150" data-region-name="독도" data-auto-name="Dokdo" data-centroid-x="740.0" data-centroid-y="225.0" d="M 704 220 L 716 211 L 731 208 L 747 211 L 762 218 L 775 228 L 773 236 L 756 240 L 737 238 L 719 236 L 704 230 Z" />
  </g>
</svg>
